<?xml version="1.0" encoding="UTF-8"?>
<!DOCTYPE svg PUBLIC "-//W3C//DTD SVG 1.1//EN" "http://www.w3.org/Graphics/SVG/1.1/DTD/svg11.dtd">
<!-- Creator: CorelDRAW 2020 (64-Bit) -->
<svg xmlns="http://www.w3.org/2000/svg" xml:space="preserve" width="62px" height="76px" version="1.1" style="shape-rendering:geometricPrecision; text-rendering:geometricPrecision; image-rendering:optimizeQuality; fill-rule:evenodd; clip-rule:evenodd"
viewBox="0 0 1.67 2.04"
 xmlns:xlink="http://www.w3.org/1999/xlink"
 xmlns:xodm="http://www.corel.com/coreldraw/odm/2003">
 <defs>
  <style type="text/css">
   <![CDATA[
    .fil0 {fill:#086642}
   ]]>
  </style>
 </defs>
 <g id="Layer_x0020_1">
  <metadata id="CorelCorpID_0Corel-Layer"/>
  <g id="_2956068942176">
   <path class="fil0" d="M0.9 0.83c-0.02,-0.01 -0.02,-0.02 -0.03,-0.03 0.01,-0.08 0.03,-0.11 0.14,-0.12 0.09,0 0.13,0.02 0.16,0.05 -0.01,0 0,0.01 -0.01,0.01 -0.05,-0.03 -0.13,-0.04 -0.13,-0.02 0.05,0.01 0.09,0.01 0.13,0.06 -0.01,0.02 -0.02,0.03 -0.04,0.03 -0.01,-0.02 -0.02,-0.03 -0.04,-0.05 -0.01,0.06 -0.06,0.07 -0.1,0.03 -0.02,0 -0.03,0.02 -0.04,0.03 0,-0.01 -0.01,-0.01 -0.02,-0.02 0,-0.01 0.02,-0.02 0.02,-0.03 0,0 -0.01,-0.01 -0.01,-0.01 -0.02,-0.01 -0.03,0.06 -0.03,0.07z"/>
   <g>
    <path class="fil0" d="M0.62 0.81c-0.02,-0.03 -0.01,-0.04 0,-0.06 -0.02,0.01 -0.04,0.02 -0.06,0.02 0.02,0.03 0.03,0.03 0.06,0.04zm0.12 -0.11c0.03,0.03 0.06,0.07 0.07,0.11 -0.01,0.06 -0.01,0.12 -0.01,0.19 -0.01,0.01 -0.02,0.03 -0.03,0.05 0.02,0.01 0.03,0.02 0.04,0.04 0.02,0 0.02,0 0.05,0 0.01,0 0.01,-0.02 0.02,-0.02 0.01,-0.01 0.03,0 0.04,-0.01 0,0.01 -0.02,0.03 -0.02,0.04 -0.02,0.01 -0.03,0.02 -0.05,0.02 0.01,0.02 0,0.03 -0.01,0.05 0.06,-0.02 0.09,0.01 0.13,0.02 -0.03,0.02 -0.07,0.02 -0.13,0.03 -0.02,0 -0.05,0 -0.07,0 -0.02,0.02 0.02,0.05 0.02,0.04 0.03,0.01 0.08,0.01 0.12,0.01 -0.01,0.02 -0.01,0.03 -0.02,0.05 -0.02,-0.02 -0.05,-0.02 -0.09,0 -0.06,0.04 -0.03,0.02 0,0.07 0.03,-0.02 0.12,-0.03 0.08,0.07 -0.04,0.02 -0.07,0.02 -0.11,0.01 -0.15,-0.07 -0.25,-0.2 -0.29,-0.36 -0.02,-0.06 -0.02,-0.04 -0.04,-0.09 0,-0.05 0,-0.08 0,-0.12 -0.01,0.01 -0.03,0.02 -0.05,0.03 -0.01,0.03 0,0.06 0.02,0.07 0.02,0.01 0.01,0.01 0.03,0.01 0,0.01 0.01,0.02 0.01,0.03 -0.02,0.01 -0.03,0.01 -0.04,0.01 -0.04,0.12 -0.07,0.24 -0.01,0.35 0.04,-0.05 0.06,-0.14 0.09,-0.18 0.01,0.01 0,0.01 0.02,0.02 0.02,0.28 -0.02,0.63 -0.2,0.8 -0.06,-0.01 -0.06,-0.07 -0.06,-0.12 -0.1,0.02 -0.2,-0.01 -0.25,-0.1 0.01,-0.01 0.01,-0.01 0.02,-0.02 0.05,0.04 0.1,0.05 0.16,0.03 0.07,-0.03 0.11,-0.08 0.11,-0.17 -0.02,-0.07 -0.05,-0.15 -0.07,-0.23 -0.02,-0.08 -0.03,-0.16 0,-0.27 0.03,-0.04 0.08,-0.09 0.11,-0.14 -0.04,-0.07 -0.05,-0.16 -0.06,-0.23 0.01,-0.07 0,-0.14 0.01,-0.21 0.05,-0.15 0.1,-0.29 0.18,-0.43 0.05,-0.06 0.1,-0.09 0.16,-0.12 0.07,-0.03 0.15,-0.03 0.21,0.01 0.04,-0.04 0.11,-0.05 0.17,-0.02 0.03,0.01 0.05,0.03 0.08,0.05 -0.11,-0.05 -0.21,-0.02 -0.25,0.06 -0.07,-0.06 -0.14,-0.07 -0.19,-0.04 -0.12,0.09 -0.2,0.2 -0.25,0.33 0.06,-0.06 0.12,-0.13 0.18,-0.19 0.05,-0.03 0.11,-0.05 0.16,-0.08 0.02,0 0.04,0.02 0.03,0.03 -0.08,0.07 -0.15,0.07 -0.22,0.19 0.08,-0.06 0.14,-0.1 0.25,-0.15 -0.02,0.05 -0.04,0.06 0.04,0.08 0.1,-0.07 0.2,0.09 0.29,0.1 0.04,0.06 0.07,0.16 0.12,0.22 0.01,-0.02 0.02,-0.08 0.03,-0.1 0.02,0.02 0.03,0.08 0.02,0.12 -0.04,0.06 -0.06,0.12 -0.06,0.22 -0.01,0 -0.02,-0.03 -0.03,-0.06 0.01,-0.05 0,-0.11 -0.02,-0.16 -0.03,-0.05 -0.07,-0.07 -0.13,-0.07 -0.18,-0.1 -0.28,-0.06 -0.31,0.13z"/>
    <path class="fil0" d="M1.28 1.04c-0.01,-0.01 -0.01,-0.06 -0.02,-0.08 0.06,0 0.08,-0.16 0.08,-0.22 0.01,-0.09 -0.03,-0.15 -0.03,-0.25 -0.04,-0.18 -0.13,-0.32 -0.28,-0.4 0.02,-0.01 0.03,0 0.05,-0.01 0.07,0.05 0.15,0.09 0.18,0.18 0.05,0.07 0.07,0.22 0.09,0.28 0.06,0.08 0.03,0.47 -0.07,0.5z"/>
    <path class="fil0" d="M1.1 1.01c-0.04,0.03 -0.04,0.04 -0.01,0.1 0.11,0.14 0.19,0.34 0.16,0.52 -0.02,-0.03 -0.05,-0.04 -0.07,-0.07 -0.05,-0.08 -0.04,-0.09 -0.15,-0.13 -0.01,0.01 -0.04,0.02 -0.04,0.04 0.02,0.04 0.04,0.03 0.06,0.07 0.05,0.03 0.06,0.09 0.06,0.14 0.03,0.1 0.03,0.12 0.09,0.2 0.08,0.11 0.09,0.05 0.15,0.16l0.06 0c-0.03,-0.04 -0.02,-0.01 -0.08,-0.06 -0.04,-0.05 -0.05,-0.05 -0.06,-0.1 0,-0.15 0.04,-0.27 0.03,-0.42 -0.04,-0.11 -0.09,-0.19 -0.14,-0.27 -0.07,-0.1 -0.1,-0.14 -0.03,-0.15 -0.02,-0.01 -0.02,-0.02 -0.03,-0.03z"/>
    <path class="fil0" d="M1.13 1.05c0.1,0.14 0.19,0.24 0.29,0.39 0.05,0.09 0.06,0.24 0.06,0.37 0.03,0.08 0.09,0.13 0.15,0.2 0.01,-0.01 0.02,-0.01 0.04,-0.02 -0.09,-0.06 -0.16,-0.12 -0.17,-0.23 -0.02,-0.11 -0.01,-0.21 -0.04,-0.29 -0.05,-0.09 -0.1,-0.18 -0.17,-0.25 -0.03,-0.04 -0.15,-0.19 -0.16,-0.17z"/>
   </g>
  </g>
 </g>
</svg>
